<?xml version="1.0" encoding="UTF-8"?>
<svg width="18px" height="18px" viewBox="0 0 18 18" version="1.1" xmlns="http://www.w3.org/2000/svg" xmlns:xlink="http://www.w3.org/1999/xlink">
    <!-- Generator: Sketch 61 (89581) - https://sketch.com -->
    <title>Combined Shape</title>
    <desc>Created with Sketch.</desc>
    <g id="Page-1" stroke="none" stroke-width="1" fill="none" fill-rule="evenodd">
        <g id="KYC" transform="translate(-540.000000, -292.000000)" fill="#00A0D2" fill-rule="nonzero">
            <g id="lightbulb" transform="translate(540.000000, 292.000000)">
                <path d="M11.8285714,15.7371429 L11.8285714,16.3404064 C11.8285714,16.4804251 11.7732804,16.6148046 11.6746051,16.7138356 L11.6746051,16.7138356 L10.5488029,17.8452642 C10.4502644,17.9444326 10.31669,18 10.1772307,18 L10.1772307,18 L7.92562644,18 C7.78630396,18 7.65259273,17.9442951 7.55405425,17.8452642 L7.55405425,17.8452642 L6.42825208,16.7138356 C6.32957675,16.6148046 6.27428571,16.4805627 6.27428571,16.3404064 L6.27428571,16.3404064 L6.27428571,15.7371429 L11.8285714,15.7371429 Z M14.5791713,13.83432 L15.3771086,14.6321202 C15.5828686,14.8378802 15.5828686,15.1713486 15.3771086,15.3771086 C15.2742286,15.4799886 15.1395243,15.5314286 15.0046829,15.5314286 C14.8698416,15.5314286 14.7350002,15.4799886 14.6322573,15.3771086 L13.83432,14.5791713 C13.62856,14.3735484 13.62856,14.0399428 13.83432,13.83432 C14.0399428,13.62856 14.3735484,13.62856 14.5791713,13.83432 Z M4.16567997,13.83432 C4.37144001,14.0399428 4.37144001,14.3734112 4.16567997,14.5791713 L3.36774266,15.3771086 C3.26499983,15.4799886 3.13015843,15.5314286 2.99531706,15.5314286 C2.86047566,15.5314286 2.72577142,15.4799886 2.62289144,15.3771086 C2.41713143,15.1713486 2.41713143,14.8378802 2.62289144,14.6321202 L3.42082875,13.83432 C3.62645159,13.62856 3.96005716,13.62856 4.16567997,13.83432 Z M9.05142857,4.01142857 C11.8305337,4.01142857 14.0914286,6.26770208 14.0914286,9.04112666 L14.0914286,9.04112666 L14.0914286,9.73746007 C14.0914286,10.4964867 13.8298544,11.2410036 13.354714,11.8335782 L13.354714,11.8335782 L12.3529962,13.0832003 C12.0188616,13.5000148 11.8347859,14.0235995 11.8347859,14.5573136 L11.8347859,14.5573136 L11.8347859,14.7085714 L9.57814314,14.7085714 L9.57814314,11.2931567 C9.57814314,11.0028239 9.34235606,10.7675188 9.05142857,10.7675188 C8.76050108,10.7675188 8.52471401,11.0028239 8.52471401,11.2931567 L8.52471401,11.2931567 L8.52471401,14.7085714 L6.26807129,14.7085714 L6.26807129,14.5573136 C6.26807129,14.0235995 6.08399554,13.5000148 5.74986095,13.0832003 L5.74986095,13.0832003 L4.74814315,11.8335782 C4.27300271,11.2410036 4.01142857,10.4964867 4.01142857,9.73746007 L4.01142857,9.73746007 L4.01142857,9.04112666 C4.01142857,6.26770208 6.27232342,4.01142857 9.05142857,4.01142857 Z M17.4785364,8.53714286 C17.7665636,8.53714286 18,8.76736608 18,9.05142857 C18,9.33549106 17.7665636,9.56571429 17.4785364,9.56571429 L16.3614636,9.56571429 C16.0734364,9.56571429 15.84,9.33549106 15.84,9.05142857 C15.84,8.76736608 16.0734364,8.53714286 16.3614636,8.53714286 L17.4785364,8.53714286 Z M1.6385364,8.53714286 C1.92656359,8.53714286 2.16,8.76736608 2.16,9.05142857 C2.16,9.33549106 1.92656359,9.56571429 1.6385364,9.56571429 L0.521463603,9.56571429 C0.23343645,9.56571429 -7.96251953e-13,9.33549106 -7.96251953e-13,9.05142857 C-7.96251953e-13,8.76736608 0.23343645,8.53714286 0.521463603,8.53714286 L1.6385364,8.53714286 Z M3.36774266,2.62289144 L4.16567997,3.42082875 C4.37144001,3.62645159 4.37144001,3.96005716 4.16567997,4.16567997 C4.06279998,4.26855999 3.92809578,4.32 3.79325437,4.32 C3.65841297,4.32 3.52370873,4.26855999 3.42082875,4.16567997 L2.62289144,3.36774266 C2.41713143,3.16211984 2.41713143,2.82865145 2.62289144,2.62289144 C2.82851428,2.41713143 3.16211984,2.41713143 3.36774266,2.62289144 Z M15.3771086,2.62289144 C15.5828686,2.82851428 15.5828686,3.16211984 15.3771086,3.36774266 L14.5791713,4.16567997 C14.4762913,4.26855999 14.341587,4.32 14.2067456,4.32 C14.0719042,4.32 13.9370629,4.26855999 13.83432,4.16567997 C13.62856,3.96005716 13.62856,3.62645159 13.83432,3.42082875 L14.6322573,2.62289144 C14.8378802,2.41713143 15.1713486,2.41713143 15.3771086,2.62289144 Z M9.05142857,-7.96251953e-13 C9.33549106,-7.96251953e-13 9.56571429,0.23343645 9.56571429,0.521463603 L9.56571429,1.6385364 C9.56571429,1.92656359 9.33549106,2.16 9.05142857,2.16 C8.76736608,2.16 8.53714286,1.92656359 8.53714286,1.6385364 L8.53714286,0.521463603 C8.53714286,0.23343645 8.76736608,-7.96251953e-13 9.05142857,-7.96251953e-13 Z" id="Combined-Shape"></path>
            </g>
        </g>
    </g>
</svg>