<?xml version="1.0" encoding="UTF-8"?>
<svg width="18px" height="12px" viewBox="0 0 18 12" version="1.1" xmlns="http://www.w3.org/2000/svg" xmlns:xlink="http://www.w3.org/1999/xlink">
    <!-- Generator: Sketch 61 (89581) - https://sketch.com -->
    <title>eye</title>
    <desc>Created with Sketch.</desc>
    <g id="账户安全" stroke="none" stroke-width="1" fill="none" fill-rule="evenodd">
        <g id="账户安全-登录密码-修改交易密码" transform="translate(-1132.000000, -544.000000)" fill="#92949A" fill-rule="nonzero">
            <g id="Group-3-Copy-2" transform="translate(770.000000, 534.000000)">
                <path d="M371,10 C374.383611,10 377.543117,11.995283 379.887029,15.6179245 C380.037657,15.8514151 380.037657,16.1485849 379.887029,16.3820755 C377.539443,20.004717 374.383611,22 371,22 C367.616389,22 364.456883,20.004717 362.112971,16.3820755 C361.962343,16.1485849 361.962343,15.8514151 362.112971,15.6179245 C364.456883,11.995283 367.616389,10 371,10 Z M371,12 C368.795918,12 367,13.7929793 367,16 C367,18.2070207 368.795918,20 371,20 C373.204082,20 375,18.2070207 375,16 C375,13.7929793 373.204082,12 371,12 Z M371,14 C372.104569,14 373,14.8954305 373,16 C373,17.1045695 372.104569,18 371,18 C369.895431,18 369,17.1045695 369,16 C369,15.7943344 369.031043,15.5959193 369.0887,15.4091849 C369.244353,15.7579394 369.593908,16 370,16 C370.552285,16 371,15.5522847 371,15 C371,14.5939083 370.757939,14.2443528 370.410233,14.0877486 C370.595919,14.0310434 370.794334,14 371,14 Z" id="eye"></path>
            </g>
        </g>
    </g>
</svg>